<?xml version="1.0" encoding="utf-8"?>
<!-- Generator: Adobe Illustrator 25.2.1, SVG Export Plug-In . SVG Version: 6.00 Build 0)  -->
<svg version="1.1" id="Laag_1" xmlns="http://www.w3.org/2000/svg" xmlns:xlink="http://www.w3.org/1999/xlink" x="0px" y="0px"
	 viewBox="0 0 208.6 123.8" style="enable-background:new 0 0 208.6 123.8;" xml:space="preserve">
<style type="text/css">
	.st0{fill:#FFFFFF;}
</style>
<path class="st0" d="M6.1,39.5c-3-6.2-2.3-13.7,1.9-19.2l0.4-0.5l33.9,17.3l4.6-2.3L7.5,14.7C6.2,15.8,5,17.1,4,18.5
	C-0.6,25.3-1.3,34,2.3,41.4c4.4,8.8,13.9,13.6,23.6,12l-0.6-4.3C17.5,50.5,9.7,46.6,6.1,39.5z"/>
<path class="st0" d="M98.6,18.5c-1-1.4-2.2-2.7-3.4-3.8l-5.3,2.7l-35,17.8l-0.3,0.2L30,48.2l0.5,3.2c2.2,14,8.8,27.2,17.6,35.3
	l3.2,3l3.2-3c8.8-8.1,15.4-21.3,17.6-35.3l0.5-3.5l-12.3-6.3L55.9,44l12.3,6.3l-0.1,0.5C66,63.9,59.9,76.2,51.8,83.7l-0.5,0.4
	l-0.5-0.4c-8.1-7.6-14.2-19.8-16.3-32.9l-0.1-0.5l59.8-30.5l0.3,0.5c4.2,5.5,5,12.9,1.9,19.2c-3.5,7.1-11.3,11.1-19.1,9.7l-0.6,4.3
	c9.6,1.6,19.2-3.2,23.6-12C104,34,103.3,25.3,98.6,18.5z"/>
<path class="st0" d="M72.2,2.1L72.2,2.1L72.2,2.1z"/>
<path class="st0" d="M59.1,9.4l-0.5,0.8L58,9.6c-0.8-0.8-1.6-1.6-2.3-2.3l-3.3-3l-3.3,3c-0.8,0.7-1.5,1.5-2.3,2.3l-0.6,0.7l-0.5-0.8
	C43.1,5.2,39.3,2,34.9,0l-1.2,1.8c4.6,1.9,8.4,5.3,10.8,9.7l0.2,0.4l-0.3,0.4c-3.2,4-5.9,8.4-8,13.1l3.8,1.9
	c2.7-6.3,6.7-12.1,11.7-16.8l0.5-0.4l0.5,0.4c5,4.8,9,10.5,11.7,16.9l3.8-1.9c-2.1-4.7-4.8-9.1-8-13.2l-0.3-0.4l0.2-0.4
	c2.4-4.4,6.2-7.8,10.8-9.7L69.9,0C65.4,2,61.6,5.3,59.1,9.4z"/>
<path class="st0" d="M71.2,117.1L71.2,117.1L71.2,117.1z"/>
<path class="st0" d="M202.5,84.3c3,6.2,2.3,13.7-1.9,19.2l-0.4,0.5l-33.9-17.2l-4.6,2.3l39.4,20.1c1.3-1.2,2.5-2.4,3.5-3.8
	c4.7-6.8,5.3-15.5,1.8-22.9c-4.4-8.8-13.9-13.6-23.6-12l0.6,4.3C191.2,73.3,199,77.2,202.5,84.3z"/>
<path class="st0" d="M110,105.3c1,1.4,2.2,2.7,3.4,3.8l5.3-2.7l35-17.8l0.4-0.2l24.6-12.8l-0.5-3.2c-2.2-14-8.8-27.2-17.6-35.3
	l-3.2-3l-3.2,3c-8.8,8.1-15.4,21.3-17.6,35.3l-0.5,3.5l12.3,6.4l4.6-2.4l-12.3-6.3l0.1-0.5c2.1-13.1,8.2-25.4,16.3-32.9l0.5-0.5
	l0.5,0.5c7.8,7.5,13.9,19.8,16,32.8l0.1,0.5L114.4,104l-0.4-0.5c-4.2-5.5-5-13-1.9-19.2c3.5-7.1,11.3-11.1,19.2-9.7l0.6-4.3
	c-9.6-1.6-19.2,3.2-23.6,12C104.7,89.8,105.4,98.6,110,105.3z"/>
<path class="st0" d="M136.5,121.7L136.5,121.7L136.5,121.7z"/>
<path class="st0" d="M149.5,114.4l0.5-0.8l0.6,0.7c0.8,0.8,1.6,1.6,2.3,2.3l3.3,3l3.3-3c0.8-0.7,1.5-1.5,2.3-2.3l0.6-0.7l0.5,0.8
	c2.5,4.2,6.3,7.5,10.8,9.4l1.2-1.8c-4.6-1.9-8.4-5.3-10.8-9.7l-0.2-0.4l0.3-0.4c3.2-4,5.9-8.4,8-13.1l-3.8-1.9
	c-2.7,6.4-6.7,12.1-11.7,16.9l-0.5,0.4l-0.5-0.4c-5-4.8-9-10.5-11.7-16.8l-3.8,1.9c2.1,4.7,4.8,9.1,8,13.1l0.3,0.4l-0.2,0.4
	c-2.4,4.4-6.2,7.8-10.8,9.7l1.2,1.8C143.3,121.8,147,118.5,149.5,114.4z"/>
</svg>